<svg viewBox="0 0 96 96" xmlns="http://www.w3.org/2000/svg" xmlns:xlink="http://www.w3.org/1999/xlink" id="Icons_ShoppingCart" overflow="hidden"><path d="M31 31 20 31 20 24 31 24 31 31ZM46 24 46 31 35 31 35 24 46 24ZM61 24 61 31 50 31 50 24 61 24ZM76 24 76 31 65 31 65 24 76 24ZM76 42 65 42 65 35 76 35 76 42ZM76 50.5 65 51.5 65 46 76 46 76 50.5ZM31 46 31 54.5 20 55.5 20 46 31 46ZM31 42 20 42 20 35 31 35 31 42ZM46 42 35 42 35 35 46 35 46 42ZM50 42 50 35 61 35 61 42 50 42ZM46 53.2 35 54.2 35 46 46 46 46 53.2ZM50 46 61 46 61 51.8 50 52.8 50 46ZM82 56 82 18 20 18 20 17C20 12 16 8 11 8 9.3 8 8 9.3 8 11 8 12.7 9.3 14 11 14 12.7 14 14 15.3 14 17L14 67C14 72 18 76 23 76L26 76 70 76 79 76C80.7 76 82 74.7 82 73 82 71.3 80.7 70 79 70L23 70C21.3 70 20 68.7 20 67L20 61.5 82 56Z" fill="#12B886"/><circle cx="26" cy="82" r="6" fill="#12B886"/><circle cx="70" cy="82" r="6" fill="#12B886"/></svg>